<svg width="177" height="59" viewBox="0 0 177 59" fill="none" xmlns="http://www.w3.org/2000/svg">
<path d="M176.471 0.344464C167.713 0.86588 158.953 1.2764 150.191 1.57601C141.429 1.8998 132.665 2.12169 123.9 2.324C115.135 2.49355 106.37 2.64118 97.6018 2.68757C88.8346 2.75841 80.065 2.71659 71.293 2.56209C80.0506 2.03875 88.8107 1.62738 97.5732 1.328C106.335 1.00463 115.099 0.782749 123.864 0.582559C132.629 0.415132 141.395 0.267497 150.162 0.221541C158.93 0.151528 167.699 0.192496 176.471 0.344464Z" fill="#EBC136"/>
<path d="M105.936 26.6939C97.1777 27.2153 88.4176 27.6259 79.6552 27.9257C70.8933 28.2495 62.1292 28.4714 53.3647 28.6735C44.5996 28.843 35.834 28.9909 27.0662 29.037C18.299 29.1081 9.52932 29.0663 0.757324 28.9117C9.51501 28.3882 18.2751 27.9767 27.0376 27.6774C35.7995 27.354 44.5635 27.1322 53.3281 26.9322C62.0933 26.7648 70.8589 26.6169 79.6267 26.5712C88.394 26.501 97.1636 26.5419 105.936 26.6939Z" fill="#EBC136"/>
<path d="M136.083 56.1825C127.325 56.7039 118.565 57.1145 109.803 57.4143C101.041 57.7381 92.2767 57.9599 83.5122 58.162C74.7471 58.3316 65.9814 58.4795 57.2137 58.5256C48.4464 58.5967 39.6768 58.5549 30.9048 58.4003C39.6625 57.8768 48.4226 57.4653 57.185 57.166C65.947 56.8427 74.711 56.6207 83.4755 56.4208C92.2408 56.2533 101.006 56.1055 109.774 56.0598C118.541 55.9896 127.311 56.0305 136.083 56.1825Z" fill="#EBC136"/>
</svg>
