<svg width="275" height="268" viewBox="0 0 275 268" fill="none" xmlns="http://www.w3.org/2000/svg">
<path d="M175.484 113.829C183.893 113.829 183.907 100.758 175.484 100.758C167.075 100.758 167.061 113.829 175.484 113.829Z" fill="#6F56A5"/>
<path d="M104.193 4.13761C106.838 3.71176 109.546 3.92062 112.094 4.74698C113.288 5.15914 117.657 6.66641 119.815 10.7727C120.635 12.3321 120.833 14.2148 121.231 17.9803C121.478 20.3322 122.399 22.0104 122.422 24.8813C122.395 27.2079 122.033 29.5183 121.348 31.7418C120.322 35.2214 121.019 37.1874 120.498 37.8407C118.399 40.4734 111.941 38.4769 111.873 41.8896C111.832 43.9968 115.464 53.0612 115.413 55.5299C115.293 61.2824 105.639 55.3457 99.8202 46.8162C99.5561 46.4291 95.609 44.1634 95.9882 40.4338C96.1908 38.4414 97.8008 29.087 97.6283 27.8833C97.0044 23.5327 94.8053 23.0202 93.0301 17.7699C92.5494 16.452 92.4152 15.0328 92.6404 13.6481C92.8656 12.2635 93.4426 10.9599 94.3162 9.86237C96.8354 6.85479 100.331 4.82846 104.193 4.13761Z" fill="#D19E8A"/>
<path d="M120.365 22.781C120.853 22.7769 121.245 22.2811 121.239 21.6737C121.234 21.0663 120.834 20.5773 120.346 20.5814C119.857 20.5856 119.466 21.0814 119.471 21.6888C119.476 22.2962 119.876 22.7852 120.365 22.781Z" fill="#0A0709"/>
<path d="M112.392 22.85C112.881 22.8458 113.272 22.35 113.267 21.7426C113.262 21.1352 112.862 20.6462 112.374 20.6504C111.885 20.6546 111.493 21.1504 111.499 21.7578C111.504 22.3652 111.904 22.8542 112.392 22.85Z" fill="#0A0709"/>
<path d="M116.134 19.7493C116.242 19.7483 116.347 19.7159 116.437 19.6562C117.216 19.1081 118.143 18.8084 119.095 18.7965C120.048 18.7845 120.982 19.0609 121.774 19.5894C121.893 19.6768 122.042 19.7134 122.188 19.6913C122.334 19.6691 122.466 19.59 122.554 19.4712C122.641 19.3524 122.678 19.2037 122.657 19.0575C122.635 18.9114 122.556 18.7798 122.438 18.6916C121.457 18.0381 120.303 17.6922 119.124 17.6982C117.945 17.7042 116.795 18.0617 115.82 18.7251C115.72 18.7916 115.644 18.8888 115.603 19.0022C115.562 19.1157 115.56 19.2392 115.595 19.3543C115.63 19.4695 115.702 19.5702 115.799 19.6414C115.896 19.7126 116.014 19.7504 116.134 19.7493Z" fill="#494752"/>
<path d="M107.87 19.8199C107.978 19.8189 108.083 19.7866 108.172 19.7269C108.954 19.1846 109.88 18.8884 110.831 18.8761C111.782 18.8639 112.715 19.1363 113.51 19.6582C113.569 19.7018 113.636 19.7335 113.707 19.7513C113.778 19.7691 113.852 19.7727 113.924 19.7619C113.997 19.7512 114.066 19.7263 114.129 19.6886C114.192 19.651 114.247 19.6013 114.29 19.5425C114.334 19.4837 114.366 19.4168 114.383 19.3458C114.401 19.2747 114.405 19.2009 114.394 19.1284C114.383 19.056 114.358 18.9863 114.321 18.9235C114.283 18.8607 114.233 18.8059 114.175 18.7623C113.193 18.1088 112.039 17.7629 110.86 17.7689C109.681 17.7748 108.531 18.1324 107.556 18.7957C107.456 18.8622 107.38 18.9595 107.339 19.0729C107.298 19.1863 107.295 19.3098 107.331 19.425C107.366 19.5402 107.438 19.6409 107.535 19.712C107.632 19.7832 107.75 19.821 107.87 19.8199Z" fill="#494752"/>
<path d="M115.376 19.9827C115.086 20.9121 115.131 21.9136 115.502 22.8136C115.824 23.7186 116.287 24.5668 116.874 25.3269L117.34 25.8485C117.397 25.9 117.443 25.9624 117.476 26.032C117.508 26.1016 117.526 26.1769 117.529 26.2536C117.495 26.6302 117.314 26.978 117.024 27.2215C116.313 27.7555 115.427 28.003 114.542 27.9149C115.002 28.0988 115.499 28.1701 115.992 28.1229C116.485 28.0757 116.96 27.9115 117.377 27.6438C117.607 27.4863 117.799 27.2803 117.941 27.0404C118.082 26.8005 118.17 26.5324 118.197 26.2551C118.199 25.9402 118.081 25.6363 117.867 25.4051L117.417 24.8781C116.866 24.1664 116.392 23.399 116.001 22.5885C115.575 21.7871 115.359 20.8903 115.376 19.9827Z" fill="#B5806D"/>
<path d="M100.889 20.4787C100.543 20.3788 100.174 20.4007 99.8426 20.5409C99.5122 20.6716 99.2125 20.8693 98.9624 21.1217C98.7191 21.3694 98.5205 21.6574 98.3754 21.973C98.2303 22.2867 98.1494 22.6263 98.1377 22.9718C98.3839 22.7537 98.6168 22.5209 98.8351 22.2747C99.0557 22.0543 99.2439 21.8193 99.4612 21.6191C99.6663 21.4076 99.8827 21.2073 100.11 21.0192C100.353 20.8165 100.614 20.6356 100.889 20.4787Z" fill="#B5806D"/>
<path d="M100.21 25.071C100.439 24.7705 100.6 24.4248 100.685 24.0569C100.77 23.689 100.775 23.3073 100.7 22.9371C100.637 22.5629 100.5 22.2049 100.297 21.8839C100.101 21.5624 99.8306 21.2929 99.5083 21.0981C99.7113 21.7411 99.8776 22.3952 100.006 23.0571C100.114 23.7238 100.182 24.3963 100.21 25.071Z" fill="#B5806D"/>
<path d="M105.654 29.1237C105.654 29.1237 104.135 22.8115 104.388 20.9985C104.74 18.4721 104.917 17.209 104.606 16.1848C104.108 14.5453 104.907 14.3245 105.922 12.5494C106.875 10.8834 109.881 12.1997 110.626 11.917C112.717 11.1235 112.632 10.2408 114.05 10.1404C115.503 10.0376 116.568 9.64413 117.515 10.5747C118.482 11.5245 120.262 14.056 120.692 13.6105C121.596 12.3851 122.145 10.9344 122.278 9.41752C122.276 7.92356 121.91 6.4526 121.212 5.13208C120.861 4.36876 119.554 1.52812 116.878 0.78963C115.337 0.364214 115.048 1.10733 111.724 1.33261C108.276 1.56637 108.162 0.795831 106.36 1.3248C104.365 1.91045 104.449 2.87018 101.048 4.76644C99.9197 5.37513 98.7595 5.9221 97.5723 6.40491C93.2973 8.25862 92.7337 7.97288 91.7551 8.93494C89.6453 11.0091 90.0228 14.5412 90.114 15.3944C90.371 17.7972 91.316 18.5119 93.3909 22.3468C96.6763 28.4199 96.0494 30.989 97.2417 31.8343C97.8266 32.2489 100.875 30.0422 100.852 28.9678C100.821 27.5594 99.8027 27.1236 98.5903 25.098C97.7436 23.6823 96.5273 21.6498 97.2015 19.7922C97.6095 18.6693 98.078 18.9715 99.2386 19.0692C100.814 19.2017 101.607 21.3877 102.251 22.9915C102.717 24.1522 102.924 25.4003 102.858 26.6491C102.715 29.4352 106.206 30.2278 105.654 29.1237Z" fill="#2E2C33"/>
<path d="M112.74 31.8173C112.74 31.8173 116.251 35.0363 119.337 31.761L112.74 31.8173Z" fill="#9D6D5C"/>
<path d="M113.523 48.1836C113.523 48.1836 119.692 66.0237 96.1029 39.5224L85.854 48.0341C83.7301 49.8284 82.2651 52.2798 81.6907 55.0004C81.1887 58.86 80.6866 62.7195 80.1843 66.5792C78.2755 81.2526 78.2622 96.1108 80.1447 110.788C80.6527 114.746 81.1605 118.704 81.6682 122.662L125.739 128.714C123.26 120.226 121.796 111.474 121.378 102.64C120.882 92.0675 122.191 87.5689 121.691 78.7994C121.003 68.157 118.228 57.7541 113.523 48.1836Z" fill="#FFBA55"/>
<path d="M119.951 119.375C119.153 118.918 118.34 118.503 117.538 118.067L115.185 116.683C113.653 115.718 112.188 114.65 110.802 113.484C109.414 112.331 108.159 111.028 107.059 109.597C106.516 108.876 106.032 108.112 105.613 107.313C105.167 106.52 104.827 105.671 104.604 104.789C104.857 106.632 105.547 108.388 106.616 109.91C107.658 111.449 108.914 112.833 110.345 114.02C111.76 115.211 113.29 116.259 114.912 117.148L117.385 118.375C118.243 118.709 119.09 119.063 119.951 119.375Z" fill="#E6952A"/>
<path d="M107.632 37.4814C110.537 39.4865 116.103 39.3516 116.103 39.3516L116.121 39.4812C113.959 39.7629 111.911 39.9755 111.873 41.8894C111.975 42.9602 112.203 44.0153 112.551 45.0331C108.75 42.8914 107.632 37.4814 107.632 37.4814Z" fill="#B5806D"/>
<path d="M165.239 192.076L167.598 204.026L190.724 207.751L159.8 217.143L153.291 195.704L165.239 192.076Z" fill="#D19E8A"/>
<path d="M194.149 207.863L194.127 207.792C193.963 207.25 193.651 206.764 193.226 206.388C192.801 206.013 192.281 205.763 191.723 205.666L167.621 201.478C167.385 201.437 167.143 201.48 166.936 201.6C166.728 201.72 166.57 201.909 166.488 202.134L164.054 208.813C163.967 209.05 163.796 209.247 163.573 209.365C163.35 209.483 163.092 209.515 162.847 209.453L157.178 208.032C157.003 207.988 156.819 207.992 156.646 208.042C156.472 208.092 156.315 208.188 156.191 208.318C156.066 208.449 155.979 208.611 155.937 208.786C155.896 208.962 155.901 209.145 155.954 209.318L158.774 218.606C158.852 218.865 159.03 219.082 159.269 219.21C159.508 219.337 159.787 219.364 160.046 219.286L193.469 209.136C193.728 209.057 193.945 208.879 194.072 208.64C194.2 208.401 194.227 208.122 194.149 207.863Z" fill="#251D1B"/>
<path d="M80.8259 113.969C80.8259 113.969 73.7836 145.187 87.2423 144.627H138.407L152.191 200.264C152.191 200.264 157.49 202.426 162.091 201.463C165.251 200.801 167.974 197.786 169.867 196.244C169.867 196.244 159.797 116.48 140.748 114.058C116.986 111.037 80.8259 113.969 80.8259 113.969Z" fill="#808B49"/>
<path d="M138.407 144.627C139.587 143.146 140.64 141.569 141.558 139.913C141.986 139.096 142.425 138.279 142.809 137.417C143.215 136.561 143.563 135.675 144.03 134.766C144.16 135.769 144.111 136.786 143.885 137.772C143.677 138.767 143.321 139.726 142.829 140.615C142.338 141.51 141.712 142.322 140.971 143.024C140.251 143.748 139.373 144.296 138.407 144.627Z" fill="#5E7C24"/>
<path d="M97.4776 59.4081C97.4776 59.4081 99.474 54.6504 125.597 92.1734L115.671 105.057C115.671 105.057 101.26 93.1964 94.7319 82.9575" fill="#FFBA55"/>
<path d="M180.662 96.8369L203.702 85.8462L204.884 111.03L182.73 103.859L180.662 96.8369Z" fill="#8E6CD8"/>
<path d="M46.2579 267.037C65.0662 267.037 80.3132 251.747 80.3132 232.886C80.3132 214.024 65.0662 198.734 46.2579 198.734C27.4497 198.734 12.2026 214.024 12.2026 232.886C12.2026 251.747 27.4497 267.037 46.2579 267.037Z" fill="#1E1D22"/>
<path d="M46.2577 250.61C56.019 250.61 63.932 242.674 63.932 232.886C63.932 223.097 56.019 215.162 46.2577 215.162C36.4965 215.162 28.5835 223.097 28.5835 232.886C28.5835 242.674 36.4965 250.61 46.2577 250.61Z" fill="#848384"/>
<path d="M45.5858 237.326C48.9189 237.326 48.9244 232.146 45.5858 232.146C42.2528 232.146 42.2473 237.326 45.5858 237.326Z" fill="white"/>
<path d="M231.034 267.037C249.842 267.037 265.089 251.747 265.089 232.886C265.089 214.024 249.842 198.734 231.034 198.734C212.226 198.734 196.979 214.024 196.979 232.886C196.979 251.747 212.226 267.037 231.034 267.037Z" fill="#1E1D22"/>
<path d="M231.034 250.61C240.795 250.61 248.708 242.674 248.708 232.886C248.708 223.097 240.795 215.162 231.034 215.162C221.272 215.162 213.359 223.097 213.359 232.886C213.359 242.674 221.272 250.61 231.034 250.61Z" fill="#848384"/>
<path d="M230.361 239.964C237.089 239.964 237.1 229.508 230.361 229.508C223.634 229.508 223.623 239.964 230.361 239.964Z" fill="#1E1D22"/>
<path d="M274.573 228.995C274.573 228.995 243.535 213.432 188.357 234.183H89.7973C89.7973 234.183 57.0353 254.933 1.85705 239.37C1.85705 239.37 -5.04022 227.266 12.203 201.328C12.203 201.328 22.5489 171.932 29.4462 166.745L124.525 166.794C124.525 166.794 122.306 214.8 156.793 218.259C191.279 221.717 187.831 188.863 187.831 188.863L183.266 116.151C183.187 111.54 182.873 106.936 182.324 102.357C181.697 97.0174 179.885 97.7599 182.041 98.8406C185.489 100.57 219.395 137.348 226.292 189.224C226.292 189.224 265.951 184.036 274.573 228.995Z" fill="#8E6CD8"/>
<path d="M226.292 189.224C221.203 190.545 216.347 192.638 211.891 195.43C209.705 196.802 207.634 198.35 205.699 200.059C203.756 201.741 201.977 203.605 200.387 205.624C198.758 207.617 197.308 209.749 196.053 211.996C195.706 212.541 195.423 213.122 195.123 213.694C194.834 214.272 194.503 214.83 194.248 215.425C193.732 216.613 193.153 217.777 192.698 218.998C190.808 223.922 189.355 229.003 188.357 234.183C188.228 228.786 188.972 223.403 190.56 218.244C192.138 212.991 194.707 208.088 198.127 203.801C203.326 197.378 210.383 192.72 218.331 190.463C220.921 189.711 223.596 189.294 226.292 189.224Z" fill="#6F56A5"/>
<path d="M89.797 234.183C92.8571 229.501 95.2481 224.414 96.9007 219.07C98.5108 213.802 99.1974 208.176 97.9441 202.964C96.6214 197.756 93.43 193.216 88.9774 190.208C88.7042 190.014 88.4494 189.796 88.1621 189.619L87.3007 189.089C86.7223 188.741 86.1696 188.355 85.5716 188.037C84.3492 187.44 83.1944 186.744 81.8993 186.253L80.0004 185.454C79.3875 185.199 78.762 184.976 78.1263 184.785C76.8402 184.385 75.5161 184.055 74.1825 183.773C68.807 182.648 63.3012 182.276 57.8231 182.666C55.0753 182.848 52.3408 183.193 49.6342 183.7C46.924 184.211 44.2523 184.916 41.5965 185.689C30.9714 189.171 21.0272 194.462 12.2026 201.328L15.3465 198.508L18.6376 195.852L22.0447 193.334C23.2197 192.55 24.3818 191.74 25.5738 190.974C30.3948 187.95 35.5286 185.456 40.8859 183.536C46.2917 181.638 51.9137 180.425 57.6209 179.923C63.3626 179.443 69.1432 179.784 74.789 180.934C76.2008 181.243 77.6024 181.604 78.9946 182.05C79.6806 182.271 80.4068 182.518 81.0812 182.813L83.0585 183.665C84.3904 184.184 85.6526 184.944 86.9449 185.595C87.5829 185.942 88.185 186.364 88.806 186.745C89.4346 187.12 90.0358 187.54 90.6048 188C95.4901 191.457 98.8971 196.625 100.149 202.478C100.707 205.352 100.785 208.299 100.379 211.199C99.9787 214.046 99.2618 216.838 98.2415 219.525C97.2174 222.176 95.9897 224.742 94.5693 227.203C93.1767 229.659 91.5803 231.994 89.797 234.183Z" fill="#6F56A5"/>
<path d="M25.6706 168.113H119.763C125.477 168.113 130.109 162.855 130.109 156.37C130.109 149.885 125.477 144.627 119.763 144.627H25.6706C19.9571 144.627 15.3247 149.885 15.3247 156.37C15.3247 162.855 19.9571 168.113 25.6706 168.113Z" fill="#6F56A5"/>
<path d="M78.4168 196.244C76.8504 198.089 75.0877 199.758 73.1599 201.221C71.2448 202.708 69.2298 204.062 67.1291 205.273C66.1014 205.924 65.0114 206.452 63.9352 207.013C62.8662 207.591 61.7535 208.069 60.651 208.576C60.1008 208.832 59.5427 209.069 58.9861 209.31L57.2868 209.956C56.1483 210.369 55.0272 210.839 53.8728 211.205C49.2694 212.7 44.5445 213.79 39.7517 214.464C37.3718 214.858 34.9501 214.956 32.5584 215.17C30.1497 215.245 27.7408 215.248 25.3423 215.162C27.6949 214.604 30.0477 214.222 32.3815 213.754L35.867 212.999C37.0264 212.748 38.1937 212.554 39.3365 212.236C40.4839 211.942 41.6312 211.66 42.783 211.403C43.9401 211.167 45.0595 210.78 46.1976 210.475C47.3263 210.137 48.4857 209.907 49.599 209.522L52.9613 208.448C54.0897 208.114 55.182 207.678 56.2949 207.299L57.9554 206.705C58.4986 206.482 59.0402 206.255 59.5898 206.046C61.7986 205.233 63.9298 204.24 66.0772 203.274C67.137 202.764 68.2101 202.27 69.249 201.715L70.8268 200.908L72.3717 200.041C74.459 198.894 76.4775 197.627 78.4168 196.244Z" fill="#6F56A5"/>
<path d="M82.4499 207.65C80.8836 209.495 79.1209 211.164 77.1931 212.627C75.278 214.114 73.263 215.468 71.1623 216.679C70.1346 217.33 69.0445 217.858 67.9684 218.419C66.8993 218.997 65.7866 219.475 64.6842 219.982C64.134 220.238 63.5759 220.475 63.0192 220.716L61.3201 221.362C60.1815 221.775 59.0603 222.245 57.906 222.611C53.3027 224.106 48.5777 225.196 43.7849 225.87C41.4049 226.264 38.9833 226.362 36.5916 226.576C34.1828 226.651 31.7739 226.654 29.3755 226.568C31.7281 226.01 34.0808 225.628 36.4146 225.16L39.9002 224.405C41.0596 224.154 42.2268 223.96 43.3697 223.642C44.5171 223.348 45.6645 223.066 46.8162 222.809C47.9734 222.573 49.0927 222.186 50.2308 221.881C51.3594 221.543 52.5189 221.313 53.6323 220.928L56.9944 219.854C58.1229 219.52 59.2152 219.084 60.3282 218.705L61.9887 218.111C62.5319 217.888 63.0735 217.661 63.6231 217.452C65.8318 216.639 67.9631 215.646 70.1103 214.68C71.1703 214.17 72.2434 213.676 73.2823 213.121L74.8601 212.314L76.4049 211.447C78.4922 210.3 80.5106 209.033 82.4499 207.65Z" fill="#6F56A5"/>
<path d="M204.763 111.035C206.923 110.934 208.409 105.214 208.082 98.2598C207.756 91.3055 205.741 85.7501 203.581 85.8514C201.422 85.9528 199.936 91.6726 200.262 98.6269C200.589 105.581 202.604 111.137 204.763 111.035Z" fill="#FFBA55"/>
<path d="M203.581 85.8516C203.312 85.9282 203.063 86.0631 202.851 86.2467C202.64 86.4303 202.471 86.6582 202.357 86.9142C202.09 87.4039 201.884 87.9245 201.743 88.4644C201.45 89.5542 201.248 90.6662 201.137 91.7893C200.724 96.318 200.939 100.882 201.776 105.352C201.991 106.46 202.297 107.548 202.69 108.605C202.881 109.13 203.134 109.629 203.446 110.091C203.583 110.335 203.772 110.546 204 110.71C204.227 110.873 204.488 110.984 204.763 111.035C204.459 111.055 204.154 111.005 203.873 110.887C203.592 110.769 203.342 110.587 203.143 110.357C202.715 109.929 202.347 109.445 202.05 108.919C201.47 107.878 201.009 106.775 200.677 105.63C199.379 101.072 199.155 96.2752 200.021 91.6157C200.245 90.4453 200.6 89.304 201.08 88.2134C201.326 87.6611 201.647 87.1451 202.033 86.6795C202.209 86.431 202.441 86.2268 202.71 86.0832C202.978 85.9395 203.277 85.8602 203.581 85.8516Z" fill="#E6952A"/>
<path d="M194.255 112.5C193.179 111.555 192.19 110.563 191.219 109.562L188.339 106.561C187.394 105.556 186.431 104.576 185.438 103.646C184.945 103.182 184.425 102.749 183.879 102.349C183.345 101.923 182.713 101.637 182.041 101.519C182.766 101.343 183.53 101.412 184.211 101.718C184.89 101.991 185.537 102.339 186.138 102.755C187.317 103.573 188.406 104.512 189.388 105.557C190.363 106.587 191.265 107.684 192.086 108.839C192.924 109.987 193.65 111.213 194.255 112.5Z" fill="#6F56A5"/>
<path d="M61.8086 141.798H10.0331C9.28607 141.798 8.56959 141.501 8.04133 140.973C7.51307 140.444 7.21631 139.728 7.21631 138.981V101.055H64.6254V138.981C64.6254 139.728 64.3286 140.444 63.8004 140.973C63.2721 141.501 62.5556 141.798 61.8086 141.798Z" fill="#584432"/>
<path d="M42.5039 112.79C42.3185 112.506 42.0477 112.498 41.7392 112.489C41.7042 112.488 41.6688 112.487 41.6329 112.485C41.6056 112.484 41.5754 112.484 41.5439 112.485C41.4188 112.487 41.2724 112.489 41.1987 112.384C41.1132 112.262 41.1213 112.027 41.128 111.833C41.1301 111.771 41.1321 111.714 41.1309 111.666C41.1189 111.214 41.0938 110.735 40.9194 110.575C40.7879 110.454 40.3944 110.471 40.0316 110.486C39.914 110.491 39.7995 110.496 39.6983 110.496H31.9749C31.8194 110.496 31.6563 110.484 31.4962 110.471C31.1841 110.447 30.8828 110.424 30.6689 110.496C30.3584 110.602 30.3373 111.159 30.3175 111.684L30.3165 111.712C30.2998 112.145 30.1924 112.479 29.8365 112.445C29.4224 112.407 29.0105 112.395 28.8233 112.769C28.6022 113.212 28.6478 113.675 28.7295 114.506C28.7411 114.624 28.7535 114.75 28.766 114.885H42.6233C42.6312 114.787 42.6397 114.689 42.648 114.594C42.7129 113.847 42.7694 113.196 42.5039 112.79Z" fill="#785A3F"/>
<path fill-rule="evenodd" clip-rule="evenodd" d="M29.8452 115.708C30.0616 118.634 30.2757 121.564 30.4897 124.493L30.4898 124.495C30.6061 126.085 30.7223 127.676 30.8389 129.266H31.2811C31.3112 129.515 31.3457 129.822 31.382 130.146C31.4558 130.804 31.5373 131.53 31.6058 131.977H31.6547C32.1051 131.812 35.2186 130.483 35.22 125.19C35.2194 125.175 35.2199 125.16 35.2215 125.145H34.4523C34.415 125.145 34.3789 125.132 34.3495 125.11C34.3202 125.087 34.2991 125.056 34.2896 125.02C34.2146 124.835 34.1542 124.645 34.1088 124.451C33.6563 124.706 33.2969 125.096 33.082 125.564C32.8779 125.084 32.8512 124.549 33.0065 124.051C33.1618 123.553 33.4893 123.126 33.9316 122.842C33.9373 121.298 34.5162 119.809 35.5586 118.658L35.5749 118.643C35.6052 118.617 35.644 118.603 35.6842 118.602C35.7075 118.603 35.7305 118.608 35.7517 118.617C35.7732 118.627 35.7924 118.64 35.8081 118.658C36.8628 119.811 37.4385 121.314 37.4207 122.867C37.8713 123.143 38.2054 123.57 38.361 124.071C38.5166 124.571 38.4831 125.11 38.2667 125.588C38.0529 125.118 37.6933 124.728 37.2399 124.474C37.2122 124.662 37.1612 124.846 37.088 125.022C37.0627 125.097 37.0121 125.145 36.9615 125.145H36.1412C36.1425 125.154 36.1434 125.163 36.1439 125.172L36.1442 125.174L36.1442 125.178C36.1445 125.186 36.1445 125.194 36.1443 125.202C36.1555 130.646 39.4658 131.882 39.7448 131.977H39.8402C39.8646 131.548 39.9439 130.956 40.0213 130.379C40.0745 129.982 40.1269 129.591 40.1596 129.266H40.6069C40.7501 127.263 40.8973 125.266 41.0446 123.269L41.0446 123.268L41.0447 123.267C41.233 120.712 41.4214 118.158 41.6012 115.591H29.8738C29.8401 115.597 29.8424 115.653 29.8452 115.708ZM35.6842 118.602L35.6834 118.602H35.6852L35.6842 118.602Z" fill="#785A3F"/>
<path d="M71.5761 91.9114V97.0678C71.6247 98.0734 71.2734 99.0573 70.5989 99.8047C69.9245 100.552 68.9817 101.002 67.9766 101.057H3.86222C2.85771 101.002 1.91576 100.551 1.24238 99.8039C0.568995 99.0564 0.218972 98.0727 0.268843 97.0678V91.9114C0.220345 90.9076 0.571038 89.9253 1.24433 89.1792C1.91763 88.4332 2.8588 87.9839 3.86222 87.9296H67.9766C68.9806 87.9836 69.9226 88.4325 70.5969 89.1785C71.2713 89.9245 71.6233 90.9069 71.5761 91.9114Z" fill="#785A3F"/>
<path d="M63.9908 141.823H29.8428L22.1414 133.724C22.0266 133.598 21.8858 133.498 21.7289 133.432C21.5719 133.365 21.4025 133.333 21.2321 133.338C21.0617 133.343 20.8943 133.385 20.7415 133.461C20.5887 133.536 20.454 133.644 20.3466 133.776C20.1133 134.058 19.9896 134.414 19.9982 134.78C20.0069 135.145 20.1474 135.496 20.3937 135.766L26.1533 141.823H16.9656V135.431C16.9839 135.254 16.9646 135.074 16.9091 134.904C16.8537 134.734 16.7632 134.578 16.6435 134.445C16.5238 134.313 16.3776 134.207 16.2144 134.134C16.0511 134.061 15.8745 134.024 15.6959 134.024C15.5172 134.024 15.3406 134.061 15.1773 134.134C15.0141 134.207 14.8679 134.313 14.7482 134.445C14.6285 134.578 14.538 134.734 14.4825 134.904C14.4271 135.074 14.4079 135.254 14.4261 135.431V141.823H8.15353C7.8053 141.859 7.48271 142.022 7.24817 142.282C7.01362 142.542 6.88379 142.88 6.88379 143.23C6.88379 143.58 7.01362 143.918 7.24817 144.178C7.48271 144.437 7.8053 144.601 8.15353 144.637H14.4261V151.029C14.4079 151.206 14.4271 151.386 14.4825 151.556C14.538 151.726 14.6285 151.882 14.7482 152.015C14.8679 152.147 15.0141 152.253 15.1773 152.326C15.3406 152.398 15.5172 152.436 15.6959 152.436C15.8745 152.436 16.0511 152.398 16.2144 152.326C16.3776 152.253 16.5238 152.147 16.6435 152.015C16.7632 151.882 16.8537 151.726 16.9091 151.556C16.9646 151.386 16.9839 151.206 16.9656 151.029V144.637H28.8291L35.226 151.364C35.3409 151.49 35.4817 151.589 35.6386 151.656C35.7956 151.723 35.965 151.754 36.1354 151.749C36.3058 151.745 36.4731 151.703 36.6259 151.627C36.7788 151.552 36.9135 151.444 37.0208 151.312C37.2542 151.03 37.3779 150.674 37.3692 150.308C37.3606 149.943 37.2201 149.592 36.9737 149.322L32.5186 144.637H63.9908C64.339 144.601 64.6616 144.437 64.8961 144.178C65.1307 143.918 65.2605 143.58 65.2605 143.23C65.2605 142.88 65.1307 142.542 64.8961 142.282C64.6616 142.022 64.339 141.859 63.9908 141.823Z" fill="#464646"/>
<path d="M125.303 92.9028L164.61 98.1439C164.61 98.1439 180.664 92.1858 183.934 100.635C184.366 101.802 184.378 103.083 183.969 104.259C182.989 107.198 180.671 113.002 178.973 108.159L177.227 103.18C177.227 103.18 171.202 107.353 165.38 105.284C163.277 104.536 135.127 110.02 119.951 106.318L115.671 105.057L125.303 92.9028Z" fill="#D19E8A"/>
<path d="M97.4777 59.408C97.6027 59.1936 97.8837 59.1934 98.1029 59.2154C98.3308 59.2583 98.5542 59.3226 98.77 59.4073C99.1863 59.6066 99.5856 59.8395 99.9641 60.1036C100.35 60.3551 100.718 60.6328 101.066 60.9348C101.415 61.2333 101.791 61.5066 102.117 61.8281C103.479 63.0616 104.768 64.372 106.019 65.7136C108.516 68.4047 110.816 71.2588 113.123 74.1053C115.413 76.9651 117.625 79.8856 119.79 82.8374C121.991 85.7649 124.054 88.7875 126.189 91.7609L126.496 92.1894L126.168 92.6138L121.194 99.0464L116.191 105.457L115.767 106L115.254 105.563C113.297 103.899 111.406 102.192 109.564 100.42C107.722 98.6504 105.912 96.8487 104.16 94.9907C102.407 93.1337 100.708 91.2235 99.1228 89.2199C97.519 87.2343 96.052 85.1419 94.7319 82.9573C96.2147 85.0218 97.8075 87.0049 99.5035 88.8981C101.203 90.7838 102.981 92.5959 104.772 94.3916C106.577 96.1752 108.438 97.9012 110.328 99.5927C112.227 101.271 114.138 102.952 116.088 104.55L115.151 104.656L120.074 98.1837L125.025 91.733L125.005 92.5855C122.902 89.6003 120.83 86.5915 118.695 83.6309C116.591 80.6468 114.422 77.7122 112.263 74.7694C110.073 71.853 107.864 68.944 105.504 66.1684C104.34 64.7666 103.138 63.3958 101.861 62.0989C101.555 61.76 101.203 61.4737 100.875 61.1582C100.549 60.8426 100.204 60.5476 99.8408 60.2749C99.4903 59.9875 99.117 59.7292 98.7245 59.5026C98.5223 59.4052 98.3117 59.3266 98.0953 59.2676C97.8864 59.2312 97.6183 59.2063 97.4777 59.408Z" fill="#E6952A"/>
<path d="M15.7467 144.155C16.0066 144.146 16.2528 144.037 16.4334 143.85C16.6141 143.663 16.7151 143.413 16.7151 143.153C16.7151 142.893 16.6141 142.643 16.4334 142.456C16.2528 142.269 16.0066 142.159 15.7467 142.15C15.4868 142.159 15.2406 142.269 15.06 142.456C14.8793 142.643 14.7783 142.893 14.7783 143.153C14.7783 143.413 14.8793 143.663 15.06 143.85C15.2406 144.037 15.4868 144.146 15.7467 144.155Z" fill="#616161"/>
<path d="M15.7467 151.689C16.0066 151.68 16.2528 151.571 16.4334 151.384C16.6141 151.197 16.7151 150.947 16.7151 150.687C16.7151 150.427 16.6141 150.177 16.4334 149.99C16.2528 149.803 16.0066 149.693 15.7467 149.684C15.4868 149.693 15.2406 149.803 15.06 149.99C14.8793 150.177 14.7783 150.427 14.7783 150.687C14.7783 150.947 14.8793 151.197 15.06 151.384C15.2406 151.571 15.4868 151.68 15.7467 151.689Z" fill="#616161"/>
<path d="M21.4601 135.956C21.7199 135.947 21.9662 135.838 22.1468 135.65C22.3275 135.463 22.4285 135.214 22.4285 134.954C22.4285 134.693 22.3275 134.444 22.1468 134.257C21.9662 134.07 21.7199 133.96 21.4601 133.951C21.2002 133.96 20.954 134.07 20.7733 134.257C20.5927 134.444 20.4917 134.693 20.4917 134.954C20.4917 135.214 20.5927 135.463 20.7733 135.65C20.954 135.838 21.2002 135.947 21.4601 135.956Z" fill="#616161"/>
<path d="M15.7466 136.642C16.0064 136.633 16.2526 136.523 16.4332 136.336C16.6138 136.149 16.7148 135.899 16.7148 135.639C16.7148 135.379 16.6138 135.13 16.4332 134.943C16.2526 134.756 16.0064 134.646 15.7466 134.637C15.4867 134.646 15.2405 134.756 15.0599 134.943C14.8793 135.13 14.7783 135.379 14.7783 135.639C14.7783 135.899 14.8793 136.149 15.0599 136.336C15.2405 136.523 15.4867 136.633 15.7466 136.642Z" fill="#616161"/>
<path d="M28.774 144.155C29.0339 144.146 29.2801 144.037 29.4608 143.85C29.6414 143.663 29.7424 143.413 29.7424 143.153C29.7424 142.893 29.6414 142.643 29.4608 142.456C29.2801 142.269 29.0339 142.159 28.774 142.15C28.5142 142.159 28.268 142.269 28.0873 142.456C27.9066 142.643 27.8057 142.893 27.8057 143.153C27.8057 143.413 27.9066 143.663 28.0873 143.85C28.268 144.037 28.5142 144.146 28.774 144.155Z" fill="#616161"/>
<path d="M35.921 143.889C36.1808 143.88 36.4271 143.77 36.6077 143.583C36.7884 143.396 36.8894 143.147 36.8894 142.887C36.8894 142.626 36.7884 142.377 36.6077 142.19C36.4271 142.003 36.1808 141.893 35.921 141.884C35.6611 141.893 35.4149 142.003 35.2343 142.19C35.0536 142.377 34.9526 142.626 34.9526 142.887C34.9526 143.147 35.0536 143.396 35.2343 143.583C35.4149 143.77 35.6611 143.88 35.921 143.889Z" fill="#616161"/>
<path d="M35.921 151.225C36.1808 151.216 36.4271 151.107 36.6077 150.919C36.7884 150.732 36.8894 150.483 36.8894 150.223C36.8894 149.962 36.7884 149.713 36.6077 149.526C36.4271 149.339 36.1808 149.229 35.921 149.22C35.6611 149.229 35.4149 149.339 35.2343 149.526C35.0536 149.713 34.9526 149.962 34.9526 150.223C34.9526 150.483 35.0536 150.732 35.2343 150.919C35.4149 151.107 35.6611 151.216 35.921 151.225Z" fill="#616161"/>
<path d="M8.81407 144.155C9.07393 144.146 9.32015 144.037 9.50081 143.85C9.68147 143.663 9.78245 143.413 9.78245 143.153C9.78245 142.893 9.68147 142.643 9.50081 142.456C9.32015 142.269 9.07393 142.159 8.81407 142.15C8.55421 142.159 8.30799 142.269 8.12734 142.456C7.94668 142.643 7.8457 142.893 7.8457 143.153C7.8457 143.413 7.94668 143.663 8.12734 143.85C8.30799 144.037 8.55421 144.146 8.81407 144.155Z" fill="#616161"/>
<path d="M62.9039 144.155C63.1638 144.146 63.41 144.037 63.5906 143.85C63.7713 143.663 63.8723 143.413 63.8723 143.153C63.8723 142.893 63.7713 142.643 63.5906 142.456C63.41 142.269 63.1638 142.159 62.9039 142.15C62.6441 142.159 62.3978 142.269 62.2172 142.456C62.0365 142.643 61.9355 142.893 61.9355 143.153C61.9355 143.413 62.0365 143.663 62.2172 143.85C62.3978 144.037 62.6441 144.146 62.9039 144.155Z" fill="#616161"/>
</svg>
