<svg width="96" height="103" viewBox="0 0 96 103" fill="none" xmlns="http://www.w3.org/2000/svg">
<path d="M50.7398 100.645L50.0063 100.204C50.2123 99.8614 70.6625 65.7781 73.8464 57.2856L74.6479 57.5868C71.4359 66.1517 51.583 99.2411 50.7398 100.645Z" fill="#8B9D36"/>
<path d="M67.3159 39.4136C68.1815 41.5553 68.8433 43.7738 69.2926 46.0398C69.752 48.259 70.0893 50.5017 70.3029 52.7579C70.5223 55.0135 70.6152 57.2796 70.5812 59.5456C70.5683 61.8561 70.3346 64.1601 69.8834 66.4262C69.0137 64.2857 68.3502 62.067 67.9021 59.8004C67.442 57.5813 67.1062 55.3383 66.8964 53.0818C66.6811 50.8258 66.5898 48.5597 66.6228 46.2937C66.637 43.9836 66.8691 41.68 67.3159 39.4136V39.4136Z" fill="#8B9D36"/>
<path d="M59.7689 49.7342C60.8229 51.7293 61.6818 53.8215 62.3339 55.9817C62.9913 58.0933 63.5294 60.2403 63.9454 62.4124C64.3669 64.5834 64.6639 66.7768 64.8349 68.9817C65.0302 71.2301 65.0056 73.4923 64.7614 75.736C63.7035 73.7424 62.8429 71.6502 62.1918 69.4893C61.534 67.3778 60.9975 65.2305 60.5849 63.0577C60.167 60.886 59.8716 58.6924 59.7 56.4875C59.5059 54.2394 59.5289 51.9779 59.7689 49.7342V49.7342Z" fill="#8B9D36"/>
<path d="M55.6102 61.7496C56.5383 63.6039 57.2701 65.5501 57.7937 67.5566C58.3222 69.5111 58.7302 71.4963 59.0154 73.5009C59.3059 75.5047 59.471 77.5247 59.5096 79.5491C59.5697 81.6223 59.41 83.6961 59.0333 85.7358C58.1011 83.883 57.3676 81.9367 56.8452 79.9294C56.3159 77.9751 55.9094 75.9896 55.6281 73.9845C55.3412 71.9801 55.1777 69.96 55.1385 67.9356C55.0795 65.8628 55.2376 63.7895 55.6102 61.7496V61.7496Z" fill="#8B9D36"/>
<path d="M50.3734 73.7429C51.3053 75.2962 52.0485 76.9552 52.5874 78.6847C53.1266 80.3552 53.5466 82.0619 53.8442 83.7918C54.1476 85.5207 54.3256 87.2693 54.3769 89.024C54.4503 90.8345 54.3048 92.6473 53.9437 94.423C53.0079 92.8713 52.2629 91.2123 51.7251 89.4819C51.1852 87.8116 50.7666 86.1046 50.4724 84.374C50.1731 82.6444 49.9966 80.8957 49.9443 79.1411C49.8722 77.331 50.0163 75.5188 50.3734 73.7429V73.7429Z" fill="#8B9D36"/>
<path d="M45.7528 81.2388C46.7035 82.586 47.4883 84.0428 48.0901 85.5779C48.6799 87.0438 49.1709 88.5476 49.5596 90.0792C49.9447 91.5994 50.241 93.1407 50.447 94.6953C50.5431 95.4788 50.6313 96.2579 50.6898 97.052C50.72 97.8614 50.8063 98.6678 50.948 99.4652C50.7503 99.3592 50.5604 99.2394 50.3797 99.1065L49.9185 98.6442C49.6244 98.3287 49.3547 97.9913 49.1117 97.635C48.6433 96.9482 48.2286 96.2263 47.8712 95.4758C47.177 94.0167 46.6316 92.4913 46.2434 90.9228C45.8474 89.3685 45.591 87.782 45.4771 86.1821C45.3389 84.5295 45.4317 82.8658 45.7528 81.2388V81.2388Z" fill="#8B9D36"/>
<path d="M71.8037 62.7353C73.3566 61.032 75.1038 59.5167 77.0097 58.2204C78.8459 56.9445 80.7686 55.7979 82.7639 54.7887C84.7562 53.7737 86.8178 52.9009 88.9334 52.1769C91.1063 51.4066 93.363 50.897 95.656 50.6586C94.1066 52.3659 92.36 53.8832 90.453 55.1787C88.6171 56.4552 86.6933 57.6003 84.6959 58.6052C82.7014 59.6161 80.6391 60.4871 78.5239 61.2118C76.3511 61.9807 74.0956 62.492 71.8037 62.7353V62.7353Z" fill="#8B9D36"/>
<path d="M66.6904 72.2877C68.6763 70.6635 70.8286 69.2543 73.1114 68.0838C75.3284 66.9206 77.6155 65.8962 79.9594 65.0166C82.3008 64.1304 84.696 63.3932 87.1304 62.8094C89.6192 62.1854 92.1677 61.8301 94.7322 61.7496C92.7492 63.378 90.5974 64.7892 88.3137 65.9589C86.0971 67.1229 83.8092 68.1456 81.4636 69.0208C79.1204 69.9026 76.7248 70.6379 74.2905 71.2225C71.8019 71.8451 69.2543 72.2021 66.6904 72.2877V72.2877Z" fill="#8B9D36"/>
<path d="M60.6709 82.9057C62.439 81.3363 64.381 79.9745 66.4589 78.847C68.467 77.7316 70.5483 76.7534 72.6885 75.9193C74.8261 75.0787 77.0192 74.3865 79.252 73.8476C81.5445 73.2679 83.8965 72.9559 86.2609 72.9178C84.4956 74.4914 82.554 75.8552 80.4749 76.9819C78.4673 78.098 76.3851 79.0744 74.2432 79.9042C72.1038 80.7403 69.9103 81.4307 67.6777 81.9705C65.3854 82.5487 63.0345 82.8625 60.6709 82.9057Z" fill="#8B9D36"/>
<path d="M55.9136 91.0785C57.4538 89.744 59.163 88.618 60.9971 87.7297C62.7518 86.8569 64.5729 86.1245 66.4434 85.5396C68.312 84.9486 70.2253 84.5094 72.1645 84.2264C74.1782 83.9086 76.2253 83.8603 78.2517 84.0829C76.7141 85.4216 75.0051 86.5496 73.1698 87.4372C71.4155 88.3109 69.5934 89.0415 67.7215 89.6218C65.8516 90.2083 63.9381 90.6456 61.9991 90.9295C59.9859 91.2459 57.9398 91.2961 55.9136 91.0785Z" fill="#8B9D36"/>
<path d="M52.1582 98.4116C53.8515 96.7861 55.7265 95.3613 57.7461 94.1654C59.6958 92.9845 61.7239 91.9381 63.8161 91.0334C65.9056 90.1224 68.0559 89.3576 70.2514 88.7445C72.5056 88.0887 74.8286 87.6981 77.1733 87.5806C75.4832 89.2102 73.6087 90.637 71.5879 91.8322C69.6386 93.0138 67.6095 94.0586 65.5154 94.9589C63.4241 95.8656 61.2733 96.6286 59.0781 97.2424C56.8241 97.8968 54.5021 98.2892 52.1582 98.4116Z" fill="#8B9D36"/>
<path d="M73.4653 58.6689C73.1529 56.3869 73.2092 54.0696 73.6321 51.8056C74.0043 49.671 74.5901 47.5792 75.3806 45.5618C76.1637 43.5416 77.1511 41.6067 78.3275 39.7873C79.5536 37.8362 81.0884 36.0972 82.872 34.6382C83.1914 36.9205 83.1378 39.2395 82.7133 41.5045C82.3418 43.6391 81.7534 45.7302 80.9572 47.7453C80.168 49.7633 79.1781 51.6968 78.0024 53.5168C76.7758 55.4662 75.2439 57.2057 73.4653 58.6689V58.6689Z" fill="#8B9D36"/>
<path d="M47.5981 102.044L46.7422 102.03C46.7805 99.6921 47.7955 44.5595 58.8226 27.0978L59.5458 27.5557C48.6464 44.8147 47.6075 101.474 47.5981 102.044Z" fill="#50661A"/>
<path d="M55.6411 34.9734C55.9802 32.4156 56.0662 29.8305 55.8976 27.2558C55.7554 24.7471 55.477 22.2479 55.0637 19.7694C54.6642 17.3006 54.1207 14.8563 53.4814 12.4324C52.843 9.99245 52.0366 7.64493 51.1751 5.14447C50.9317 5.76545 50.7469 6.40784 50.6231 7.06324C50.4852 7.7068 50.3844 8.3578 50.3215 9.01297C50.1879 10.2986 50.1299 11.5909 50.1477 12.8834C50.1854 15.4259 50.4183 17.9618 50.8442 20.4687C51.2587 22.968 51.8451 25.4357 52.599 27.8544C53.3445 30.3334 54.3649 32.7212 55.6411 34.9734V34.9734Z" fill="#50661A"/>
<path d="M69.1955 0.0610352C67.3002 1.88892 65.6749 3.97752 64.3685 6.26387C63.0961 8.43252 62.0137 10.7072 61.1334 13.0625C60.2451 15.4148 59.5656 17.8406 59.1028 20.3121C58.5853 22.8952 58.4426 25.5394 58.6791 28.1632C60.58 26.3395 62.2082 24.2514 63.5137 21.9633C64.7872 19.7953 65.8673 17.5193 66.7413 15.1618C67.6235 12.8072 68.3004 10.3806 68.7644 7.9093C69.2802 5.32698 69.4254 2.68432 69.1955 0.0610352Z" fill="#50661A"/>
<path d="M78.2827 14.1121C76.034 15.9189 73.9103 17.8761 71.9261 19.97C69.9615 22.0068 68.0868 24.0891 66.2525 26.1827L60.803 32.4375C59.8888 33.4617 58.965 34.471 57.989 35.4269C57.0246 36.4398 55.9014 37.2884 54.6636 37.9393C55.4185 38.0714 56.1922 38.0518 56.9394 37.8816C57.6931 37.7314 58.4282 37.5002 59.1321 37.1919C60.5098 36.5863 61.8189 35.8355 63.0374 34.9524C65.4023 33.2208 67.5608 31.2237 69.4706 29.0002C71.3702 26.8218 73.0804 24.4852 74.5825 22.0158C76.1288 19.5394 77.3712 16.8857 78.2827 14.1121V14.1121Z" fill="#50661A"/>
<path d="M78.2832 28.1632C75.5111 29.5476 72.8668 31.1741 70.381 33.0239C67.9212 34.823 65.5548 36.7465 63.2911 38.787C61.0225 40.822 58.8612 42.9735 56.8158 45.2328C54.7154 47.5117 52.8228 49.9737 51.1606 52.5895C53.9355 51.2096 56.5815 49.5843 59.067 47.7331C61.5274 45.9347 63.8926 44.0097 66.1531 41.9658C68.4186 39.9273 70.5784 37.7744 72.6243 35.5156C74.7234 33.2363 76.6171 30.7759 78.2832 28.1632V28.1632Z" fill="#50661A"/>
<path d="M77.3589 39.1879C74.5662 40.4877 71.8945 42.0329 69.3752 43.8055C66.8834 45.5279 64.4817 47.3772 62.1796 49.3461C59.8729 51.3095 57.6704 53.392 55.581 55.5853C53.4361 57.7971 51.4942 60.1971 49.7788 62.7564C52.5742 61.4612 55.2476 59.9173 57.7666 58.1433C60.2588 56.4216 62.6592 54.5707 64.9581 52.5983C67.2618 50.6314 69.463 48.5474 71.553 46.3547C73.6967 44.1425 75.6396 41.7441 77.3589 39.1879V39.1879Z" fill="#50661A"/>
<path d="M76.7427 50.9719C73.9636 52.017 71.2866 53.3158 68.7457 54.8519C66.2374 56.3389 63.8104 57.9587 61.4748 59.7046C59.135 61.4446 56.8914 63.3103 54.7538 65.2936C52.5581 67.2932 50.5536 69.4932 48.7661 71.8649C51.5474 70.8242 54.2257 69.5269 56.7665 67.9896C59.2751 66.5032 61.7012 64.8817 64.0339 63.1321C66.3709 61.3884 68.6132 59.5212 70.7512 57.5384C72.9457 55.5382 74.9513 53.3401 76.7427 50.9719Z" fill="#50661A"/>
<path d="M77.3586 59.5214C74.4511 60.6913 71.6514 62.113 68.9914 63.7703C66.361 65.3794 63.8133 67.1202 61.3583 68.9862C58.8988 70.8462 56.5364 72.8314 54.2805 74.9339C51.9686 77.0506 49.8482 79.3676 47.9443 81.8578C50.8541 80.6925 53.6552 79.2723 56.3149 77.6136C58.9458 76.0052 61.4924 74.2627 63.9446 72.3931C66.4013 70.5292 68.7623 68.5426 71.0187 66.4407C73.3294 64.3233 75.4508 62.0081 77.3586 59.5214V59.5214Z" fill="#50661A"/>
<path d="M79.5151 67.5316C76.4879 68.9396 73.5651 70.562 70.7689 72.3863C67.9921 74.1641 65.3056 76.0435 62.6863 78.0051C60.0595 79.9552 57.5054 81.9883 54.9964 84.0892C52.4615 86.172 50.067 88.3413 47.4443 90.4896C49.1284 90.2126 50.7728 89.7327 52.3416 89.0603C53.8948 88.4109 55.4128 87.6801 56.8891 86.8708C59.7929 85.2461 62.5849 83.4291 65.2462 81.4318C67.8981 79.4437 70.433 77.3043 72.8384 75.0242C75.2893 72.7371 77.5243 70.2289 79.5151 67.5316Z" fill="#50661A"/>
<path d="M82.1337 75.85C78.8624 77.1215 75.6882 78.6301 72.6364 80.3638C69.6035 82.0536 66.6599 83.868 63.7841 85.7779C60.9078 87.6872 58.1009 89.6948 55.3634 91.8007C53.9951 92.8567 52.6398 93.9316 51.2976 95.0255C49.9993 96.1765 48.62 97.2328 47.1704 98.1862C48.0794 98.1867 48.9818 98.0317 49.8386 97.7279C50.6984 97.4732 51.5332 97.1633 52.3589 96.841C54.0055 96.1873 55.5965 95.4395 57.1571 94.6471C60.2548 93.0515 63.2584 91.2794 66.1531 89.3395C69.0473 87.4136 71.8421 85.3422 74.5265 83.1332C77.2591 80.9198 79.8035 78.4837 82.1337 75.85V75.85Z" fill="#50661A"/>
<path d="M52.9865 44.7597C52.8475 41.9803 52.4363 39.2212 51.7589 36.522C51.1194 33.8721 50.329 31.261 49.3916 28.7013C48.4609 26.1392 47.3822 23.6333 46.161 21.1962C44.9383 18.6959 43.4707 16.3229 41.7798 14.1121C41.9138 16.8923 42.323 19.6524 43.0015 22.3518C43.6406 25.0018 44.433 27.6124 45.3747 30.1705C46.3097 32.7311 47.3902 35.2362 48.6107 37.6736C49.8342 40.173 51.2998 42.5464 52.9865 44.7597V44.7597Z" fill="#50661A"/>
<path d="M51.1602 54.3786C50.6355 51.614 49.8438 48.9067 48.7962 46.295C47.7927 43.7263 46.6449 41.2165 45.3584 38.7773C44.0783 36.3347 42.659 33.9677 41.1076 31.6879C39.5466 29.346 37.7596 27.1629 35.7725 25.1699C36.2924 27.936 37.0824 30.6445 38.131 33.2563C39.1342 35.8251 40.2838 38.3342 41.5742 40.7713C42.8585 43.2116 44.2794 45.5776 45.8301 47.8579C47.392 50.1986 49.1771 52.3824 51.1602 54.3786V54.3786Z" fill="#50661A"/>
<path d="M49.779 63.6805C48.8789 60.8742 47.7205 58.1574 46.3186 55.5651C44.9642 53.0083 43.4734 50.5261 41.8526 48.1294C40.2375 45.7287 38.4923 43.4182 36.6249 41.2083C34.7434 38.9392 32.6533 36.8518 30.3818 34.9734C31.2773 37.7818 32.4343 40.4999 33.8376 43.0921C35.1912 45.6494 36.6837 48.1305 38.3087 50.5245C39.9274 52.9227 41.6741 55.232 43.541 57.4424C45.423 59.7102 47.5112 61.7985 49.779 63.6805V63.6805Z" fill="#50661A"/>
<path d="M48.7664 73.943C47.3549 70.9096 45.698 67.9966 43.8123 65.233C41.971 62.4847 40.0063 59.8375 37.9182 57.2914C35.837 54.7395 33.6353 52.2861 31.3129 49.9313C28.9813 47.5314 26.4546 45.329 23.7588 43.347C25.1648 46.3835 26.8203 49.2981 28.7082 52.0607C30.5495 54.8088 32.5156 57.4548 34.6066 59.9987C36.6927 62.5468 38.896 64.999 41.2164 67.3551C43.5493 69.7532 46.0744 71.9565 48.7664 73.943Z" fill="#50661A"/>
<path d="M47.9444 84.5846C46.2139 81.701 44.252 78.9629 42.0779 76.3974C39.9495 73.8421 37.7087 71.4002 35.3556 69.0717C33.0091 66.7368 30.5528 64.5122 27.9866 62.3982C25.4067 60.2404 22.6531 58.2992 19.7539 56.5945C21.4793 59.4817 23.4401 62.2214 25.6163 64.7859C27.7446 67.3409 29.9867 69.7814 32.3423 72.1074C34.6933 74.4382 37.1511 76.6613 39.7155 78.7768C42.2965 80.9327 45.0486 82.875 47.9444 84.5846V84.5846Z" fill="#50661A"/>
<path d="M47.4445 91.4082C45.525 88.9203 43.3924 86.6044 41.0708 84.4869C38.8035 82.3846 36.4319 80.3978 33.9649 78.534C31.5025 76.6643 28.9459 74.9221 26.3051 73.3141C23.6355 71.6559 20.8248 70.2364 17.9058 69.072C19.8216 71.5634 21.9533 73.881 24.2762 75.9979C26.5429 78.1007 28.9157 80.0861 31.3854 81.9462C33.8508 83.812 36.4086 85.5526 39.0489 87.1614C41.7188 88.8182 44.528 90.2392 47.4445 91.4082V91.4082Z" fill="#50661A"/>
<path d="M47.1705 97.1077C44.8677 94.837 42.3767 92.7656 39.7241 90.9157C37.1203 89.0644 34.4372 87.3517 31.6749 85.7776C28.9169 84.1957 26.0817 82.7488 23.1694 81.437C20.2306 80.0863 17.1813 78.9901 14.0552 78.1605C16.3548 80.4351 18.8452 82.5084 21.499 84.3575C24.1028 86.2085 26.7867 87.9195 29.5507 89.4905C32.3117 91.0674 35.1478 92.5126 38.0591 93.8261C40.9981 95.1754 44.0461 96.2731 47.1705 97.1077V97.1077Z" fill="#50661A"/>
<path d="M47.3831 100.805C44.6202 98.8982 41.7066 97.2198 38.6713 95.7862C35.6822 94.343 32.6346 93.0571 29.5374 91.906C26.4405 90.7538 23.2895 89.7476 20.0843 88.8873C16.8482 87.993 13.5437 87.3678 10.2046 87.018C12.9645 88.9298 15.8777 90.6102 18.9144 92.042C21.9039 93.4849 24.9492 94.7765 28.0504 95.9168C31.1493 97.0634 34.2984 98.0754 37.5055 98.93C40.7417 99.8222 44.0452 100.449 47.3831 100.805V100.805Z" fill="#50661A"/>
<path d="M45.8858 100.51C45.0426 99.1058 25.1896 66.0163 21.9785 57.4523L22.78 57.1511C25.9631 65.6428 46.4133 99.7261 46.6192 100.069L45.8858 100.51Z" fill="#5E7C24"/>
<path d="M29.2667 39.4136C28.4011 41.5553 27.7393 43.7738 27.29 46.0398C26.8306 48.259 26.4933 50.5017 26.2797 52.7579C26.0604 55.0135 25.9675 57.2796 26.0015 59.5456C26.0144 61.8561 26.248 64.1601 26.6992 66.4262C27.569 64.2857 28.2324 62.067 28.6805 59.8004C29.1406 57.5813 29.4764 55.3383 29.6862 53.0818C29.9015 50.8258 29.9928 48.5597 29.9598 46.2937C29.9456 43.9836 29.7135 41.68 29.2667 39.4136V39.4136Z" fill="#5E7C24"/>
<path d="M36.8143 49.7342C35.7603 51.7293 34.9013 53.8215 34.2493 55.9817C33.5918 58.0933 33.0538 60.2403 32.6378 62.4124C32.2163 64.5834 31.9193 66.7768 31.7482 68.9817C31.553 71.2301 31.5776 73.4923 31.8218 75.736C32.8797 73.7424 33.7403 71.6502 34.3914 69.4893C35.0492 67.3778 35.5857 65.2305 35.9983 63.0577C36.4162 60.886 36.7116 58.6924 36.8832 56.4875C37.0773 54.2394 37.0542 51.9778 36.8143 49.7342V49.7342Z" fill="#5E7C24"/>
<path d="M40.9728 61.7496C40.0447 63.6039 39.3128 65.5501 38.7893 67.5566C38.2607 69.5111 37.8527 71.4963 37.5676 73.5009C37.2771 75.5047 37.112 77.5247 37.0733 79.5491C37.0133 81.6223 37.173 83.6961 37.5497 85.7358C38.4819 83.883 39.2154 81.9367 39.7378 79.9294C40.2671 77.9751 40.6736 75.9896 40.9549 73.9845C41.2418 71.9801 41.4053 69.96 41.4445 67.9356C41.5035 65.8628 41.3454 63.7895 40.9728 61.7496V61.7496Z" fill="#5E7C24"/>
<path d="M46.2095 73.7429C45.2776 75.2962 44.5344 76.9552 43.9955 78.6847C43.4563 80.3552 43.0363 82.0619 42.7387 83.7918C42.4353 85.5207 42.2573 87.2693 42.2059 89.024C42.1326 90.8345 42.2781 92.6473 42.6392 94.423C43.575 92.8713 44.32 91.2123 44.8578 89.4819C45.3977 87.8116 45.8163 86.1046 46.1104 84.374C46.4098 82.6444 46.5863 80.8957 46.6386 79.1411C46.7107 77.331 46.5666 75.5188 46.2095 73.7429V73.7429Z" fill="#5E7C24"/>
<path d="M50.8304 81.2388C49.8797 82.586 49.095 84.0428 48.4931 85.5779C47.9033 87.0438 47.4124 88.5476 47.0237 90.0792C46.6385 91.5994 46.3422 93.1407 46.1362 94.6953C46.0401 95.4788 45.952 96.2579 45.8935 97.052C45.8632 97.8614 45.7769 98.6678 45.6353 99.4652C45.8329 99.3592 46.0228 99.2394 46.2035 99.1065L46.6648 98.6442C46.9588 98.3287 47.2285 97.9913 47.4716 97.635C47.94 96.9482 48.3547 96.2263 48.7121 95.4758C49.4063 94.0167 49.9516 92.4913 50.3399 90.9228C50.7358 89.3685 50.9923 87.782 51.1061 86.1821C51.2443 84.5295 51.1515 82.8658 50.8304 81.2388V81.2388Z" fill="#5E7C24"/>
<path d="M24.7786 62.7353C23.2257 61.032 21.4784 59.5167 19.5726 58.2204C17.7364 56.9445 15.8137 55.7979 13.8184 54.7887C11.8261 53.7737 9.76445 52.9009 7.64893 52.1769C5.47598 51.4066 3.21932 50.897 0.92627 50.6586C2.47569 52.3659 4.22226 53.8832 6.12933 55.1787C7.96515 56.4552 9.88899 57.6003 11.8864 58.6052C13.8808 59.6161 15.9431 60.4871 18.0584 61.2118C20.2312 61.9807 22.4867 62.492 24.7786 62.7353V62.7353Z" fill="#5E7C24"/>
<path d="M29.8928 72.2877C27.907 70.6635 25.7546 69.2543 23.4718 68.0838C21.2548 66.9206 18.9678 65.8962 16.6238 65.0166C14.2824 64.1304 11.8873 63.3932 9.45282 62.8094C6.96406 62.1854 4.41558 61.8301 1.85107 61.7496C3.83405 63.378 5.98584 64.7892 8.26957 65.9589C10.4861 67.1229 12.7741 68.1456 15.1197 69.0208C17.4628 69.9026 19.8584 70.6379 22.2927 71.2225C24.7814 71.8451 27.3289 72.2021 29.8928 72.2877V72.2877Z" fill="#5E7C24"/>
<path d="M35.9122 82.9057C34.1441 81.3363 32.2021 79.9745 30.1242 78.847C28.1161 77.7316 26.0348 76.7534 23.8946 75.9193C21.757 75.0787 19.564 74.3865 17.3311 73.8476C15.0386 73.2679 12.6866 72.9559 10.3223 72.9178C12.0875 74.4914 14.0291 75.8552 16.1082 76.9819C18.1158 78.098 20.198 79.0744 22.3399 79.9042C24.4793 80.7403 26.6728 81.4307 28.9055 81.9705C31.1977 82.5487 33.5486 82.8625 35.9122 82.9057V82.9057Z" fill="#5E7C24"/>
<path d="M40.6692 91.0785C39.129 89.744 37.4198 88.618 35.5856 87.7297C33.8309 86.8569 32.0098 86.1245 30.1394 85.5396C28.2708 84.9486 26.3575 84.5094 24.4182 84.2264C22.4045 83.9086 20.3575 83.8603 18.3311 84.0829C19.8687 85.4216 21.5777 86.5496 23.413 87.4372C25.1673 88.3109 26.9893 89.0415 28.8613 89.6218C30.7312 90.2083 32.6447 90.6456 34.5837 90.9295C36.5969 91.2459 38.6429 91.2961 40.6692 91.0785V91.0785Z" fill="#5E7C24"/>
<path d="M44.4248 98.4116C42.7315 96.7861 40.8565 95.3613 38.8369 94.1654C36.8871 92.9845 34.8591 91.9381 32.7669 91.0334C30.6774 90.1224 28.5271 89.3576 26.3316 88.7445C24.0774 88.0887 21.7544 87.6981 19.4097 87.5806C21.0998 89.2102 22.9742 90.637 24.995 91.8322C26.9444 93.0138 28.9735 94.0586 31.0676 94.9589C33.1589 95.8656 35.3097 96.6286 37.5049 97.2424C39.7589 97.8968 42.0809 98.2892 44.4248 98.4116V98.4116Z" fill="#5E7C24"/>
<path d="M23.1173 58.6689C23.4298 56.3869 23.3735 54.0696 22.9506 51.8056C22.5784 49.671 21.9926 47.5792 21.2021 45.5618C20.419 43.5416 19.4316 41.6067 18.2552 39.7873C17.0291 37.8362 15.4943 36.0972 13.7107 34.6382C13.3913 36.9205 13.4449 39.2395 13.8694 41.5045C14.2409 43.6391 14.8293 45.7302 15.6255 47.7453C16.4146 49.7632 17.4045 51.6968 18.5803 53.5168C19.8069 55.4662 21.3388 57.2057 23.1173 58.6689Z" fill="#5E7C24"/>
</svg>
